<svg width="218" height="148" viewBox="0 0 218 148" fill="none" xmlns="http://www.w3.org/2000/svg">
<g clip-path="url(#clip0_63_112)">
<path d="M9.97 109.72C14.11 109.72 15.88 112.28 15.88 115.22C15.88 117.51 14.79 119.96 11.98 120.75L16.26 128.11H12.69L8.5 121H3.7C3.4 121 3.24 121.14 3.24 121.46V128.11H0.03V120.84C0.03 118.77 0.9 117.93 2.92 117.93H10.08C11.91 117.93 12.64 116.68 12.64 115.37C12.64 114.06 11.85 112.95 10.08 112.95H0V109.73H9.97V109.72Z" fill="#1F3A21"/>
<path d="M27.77 113.72C31.18 113.72 32.62 115.35 32.62 118.13C32.62 120.77 31.29 122.27 27.74 122.27H20.9V123.3C20.9 124.44 21.53 125.29 23.11 125.29H31.91V128.1H23.11C19.51 128.1 18.1 126.08 18.1 123.36V118.46C18.1 115.74 19.52 113.72 23.11 113.72H27.77ZM20.9 120.01H27.66C29.21 120.01 29.78 119.36 29.78 118.29C29.78 117.2 29.15 116.49 27.74 116.49H23.11C21.53 116.49 20.9 117.36 20.9 118.48V120.01Z" fill="#1F3A21"/>
<path d="M49.14 113.72V116.5H42C39.49 116.5 38.4 117.81 38.4 120.91C38.4 124.02 39.49 125.3 42 125.3H49.14V128.11H41.73C37.89 128.11 35.49 125.77 35.49 120.92C35.49 116.07 37.89 113.73 41.73 113.73H49.14V113.72Z" fill="#1F3A21"/>
<path d="M67.62 113.72L58.96 133.88H55.85L58.55 127.59C56.92 127.59 56.34 127.07 55.85 125.82L51.03 113.72H54.08L58.41 124.43C58.6 124.95 58.74 125.03 59.28 125.03H59.66L64.54 113.73H67.62V113.72Z" fill="#1F3A21"/>
<path d="M82.39 113.72V116.5H75.25C72.74 116.5 71.65 117.81 71.65 120.91C71.65 124.02 72.74 125.3 75.25 125.3H82.39V128.11H74.98C71.14 128.11 68.74 125.77 68.74 120.92C68.74 116.07 71.14 113.73 74.98 113.73H82.39V113.72Z" fill="#1F3A21"/>
<path d="M88.72 107.48V128.1H85.83V107.48H88.72Z" fill="#1F3A21"/>
<path d="M102.23 113.72C105.64 113.72 107.08 115.35 107.08 118.13C107.08 120.77 105.75 122.27 102.2 122.27H95.36V123.3C95.36 124.44 95.99 125.29 97.57 125.29H106.37V128.1H97.57C93.97 128.1 92.56 126.08 92.56 123.36V118.46C92.56 115.74 93.98 113.72 97.57 113.72H102.23ZM95.37 120.01H102.13C103.68 120.01 104.25 119.36 104.25 118.29C104.25 117.2 103.62 116.49 102.21 116.49H97.58C96 116.49 95.37 117.36 95.37 118.48V120.01Z" fill="#1F3A21"/>
<path d="M121.1 109.72V121.73C121.1 123.5 121.97 124.89 124.86 124.89H132V128.1H124.67C119.79 128.1 117.89 125.43 117.89 121.75V109.71H121.1V109.72Z" fill="#1F3A21"/>
<path d="M144.24 113.72C147.65 113.72 149.09 115.35 149.09 118.13C149.09 120.77 147.76 122.27 144.21 122.27H137.37V123.3C137.37 124.44 138 125.29 139.58 125.29H148.38V128.1H139.58C135.98 128.1 134.57 126.08 134.57 123.36V118.46C134.57 115.74 135.99 113.72 139.58 113.72H144.24ZM137.37 120.01H144.13C145.68 120.01 146.25 119.36 146.25 118.29C146.25 117.2 145.62 116.49 144.21 116.49H139.58C138 116.49 137.37 117.36 137.37 118.48V120.01Z" fill="#1F3A21"/>
<path d="M167.46 107.48V121.95C167.46 126.09 165.61 128.11 162.18 128.11H158.2C154.36 128.11 151.96 125.77 151.96 120.92C151.96 116.07 154.36 113.73 158.2 113.73H164.55V107.49H167.46V107.48ZM164.54 121.81V116.5H158.46C155.98 116.5 154.86 117.81 154.86 120.91C154.86 124.02 155.98 125.3 158.46 125.3H161.32C163.64 125.3 164.54 124.26 164.54 121.81Z" fill="#1F3A21"/>
<path d="M181.11 113.72C184.54 113.72 186.39 115.74 186.39 119.88V128.16C186.39 132.25 184.97 133.85 180.94 133.85H172.39V131.07H180.62C182.77 131.07 183.48 130.23 183.48 128.16V127.51H177.13C173.29 127.51 170.89 125.25 170.89 120.59C170.89 115.96 173.29 113.72 177.13 113.72H181.11ZM177.41 124.89H183.49V119.85C183.49 117.51 182.59 116.5 180.27 116.5H177.41C174.93 116.5 173.81 117.75 173.81 120.7C173.81 123.65 174.93 124.89 177.41 124.89Z" fill="#1F3A21"/>
<path d="M199.81 113.72C203.22 113.72 204.66 115.35 204.66 118.13C204.66 120.77 203.33 122.27 199.78 122.27H192.94V123.3C192.94 124.44 193.57 125.29 195.15 125.29H203.95V128.1H195.15C191.55 128.1 190.14 126.08 190.14 123.36V118.46C190.14 115.74 191.56 113.72 195.15 113.72H199.81ZM192.95 120.01H199.71C201.26 120.01 201.83 119.36 201.83 118.29C201.83 117.2 201.2 116.49 199.79 116.49H195.16C193.58 116.49 192.95 117.36 192.95 118.48V120.01Z" fill="#1F3A21"/>
<path d="M217.99 113.72V116.5H212.92C211.64 116.5 211.07 117.1 211.07 118.35V128.1H208.18V117.91C208.18 115.02 209.24 113.71 212.08 113.71H217.99V113.72Z" fill="#1F3A21"/>
<path d="M32.91 143.45C32.88 143.54 32.83 143.64 32.75 143.75C32.68 143.85 32.59 143.96 32.5 144.07C32.31 144.3 32.1 144.53 31.87 144.78C31.64 145.03 31.4 145.28 31.15 145.54L30.52 144.91C30.8 144.64 31.07 144.38 31.31 144.12C31.55 143.86 31.78 143.6 31.98 143.34C32.17 143.1 32.29 142.85 32.36 142.62C32.42 142.38 32.45 142.13 32.45 141.86V140.62H30.96V139.84H34.74V140.62H33.35V141.86C33.35 142.13 33.39 142.38 33.46 142.61C33.53 142.84 33.66 143.08 33.85 143.32C34.05 143.58 34.26 143.82 34.47 144.05C34.68 144.28 34.93 144.53 35.21 144.8L34.58 145.42C34.33 145.17 34.1 144.94 33.9 144.72C33.7 144.5 33.5 144.28 33.31 144.06C33.22 143.95 33.13 143.84 33.07 143.74C33 143.64 32.95 143.54 32.91 143.45ZM38.26 147.67H37.35V142.89H36.36V147.24H35.45V139.17H36.36V142.08H37.35V139H38.26V147.67Z" fill="#666767"/>
<path d="M44.8 143.96C44.42 144 44.06 144.03 43.71 144.06C43.36 144.09 42.98 144.11 42.56 144.13C42.14 144.15 41.67 144.16 41.14 144.17C40.61 144.18 39.99 144.18 39.27 144.18V143.42C39.72 143.42 40.13 143.42 40.49 143.42C40.85 143.42 41.19 143.42 41.5 143.41V143C41 142.95 40.63 142.83 40.38 142.63C40.13 142.44 40 142.2 40 141.92V141.71C40 141.39 40.17 141.13 40.5 140.92C40.84 140.71 41.33 140.61 41.98 140.61C42.63 140.61 43.13 140.71 43.46 140.92C43.8 141.13 43.96 141.39 43.96 141.71V141.92C43.96 142.2 43.83 142.44 43.57 142.63C43.31 142.82 42.93 142.95 42.42 143V143.38C42.82 143.37 43.2 143.35 43.56 143.32C43.92 143.3 44.3 143.26 44.72 143.23L44.8 143.96ZM44.34 139.59V140.35H39.61V139.59H41.53V138.85H42.45V139.59H44.34ZM40.55 147.74V145.78H45.27V145.3H40.5V144.56H46.18V146.5H41.42V146.99H46.43V147.74H40.55ZM41.99 141.33C41.61 141.33 41.34 141.37 41.17 141.45C41 141.53 40.92 141.64 40.92 141.77V141.85C40.92 141.98 41 142.09 41.17 142.17C41.34 142.25 41.61 142.29 41.99 142.29C42.37 142.29 42.64 142.25 42.81 142.17C42.98 142.09 43.06 141.98 43.06 141.85V141.77C43.06 141.64 42.98 141.53 42.81 141.45C42.64 141.38 42.37 141.33 41.99 141.33ZM45.26 144.24V139H46.18V141.24H47.4V142.05H46.18V144.24H45.26Z" fill="#666767"/>
<path d="M51.81 139.11C52.22 139.11 52.6 139.15 52.94 139.22C53.28 139.29 53.57 139.4 53.82 139.53C54.06 139.67 54.25 139.83 54.39 140.02C54.52 140.21 54.59 140.43 54.59 140.68V140.94C54.59 141.2 54.52 141.44 54.37 141.64C54.22 141.84 54.01 142.01 53.74 142.14V143.29H55.78V144.08H47.82V143.29H49.87V142.15C49.59 142.01 49.38 141.84 49.24 141.64C49.09 141.44 49.02 141.21 49.02 140.94V140.68C49.02 140.44 49.09 140.22 49.22 140.02C49.35 139.83 49.54 139.66 49.79 139.53C50.03 139.4 50.33 139.29 50.67 139.22C51.02 139.15 51.39 139.11 51.81 139.11ZM51.81 147.92C51.36 147.92 50.97 147.88 50.63 147.79C50.29 147.7 50 147.58 49.77 147.44C49.54 147.29 49.36 147.13 49.25 146.94C49.13 146.76 49.08 146.57 49.08 146.37V146.05C49.08 145.86 49.14 145.67 49.25 145.49C49.37 145.3 49.54 145.14 49.77 144.99C50 144.85 50.29 144.73 50.63 144.64C50.97 144.55 51.37 144.5 51.81 144.5C52.25 144.5 52.65 144.55 52.99 144.64C53.33 144.73 53.62 144.85 53.85 144.99C54.08 145.13 54.25 145.3 54.37 145.49C54.49 145.68 54.55 145.87 54.55 146.05V146.37C54.55 146.56 54.49 146.75 54.37 146.93C54.25 147.12 54.08 147.28 53.85 147.43C53.62 147.57 53.34 147.69 52.99 147.78C52.65 147.87 52.25 147.92 51.81 147.92ZM51.81 141.75C52.08 141.75 52.33 141.73 52.56 141.69C52.79 141.65 52.99 141.59 53.15 141.52C53.31 141.45 53.44 141.36 53.54 141.26C53.63 141.16 53.68 141.04 53.68 140.92V140.73C53.68 140.6 53.63 140.49 53.54 140.39C53.45 140.29 53.32 140.2 53.15 140.13C52.99 140.06 52.79 140 52.56 139.96C52.33 139.92 52.08 139.9 51.81 139.9C51.53 139.9 51.28 139.92 51.05 139.96C50.82 140 50.63 140.06 50.46 140.13C50.3 140.2 50.17 140.29 50.07 140.39C49.98 140.49 49.93 140.61 49.93 140.73V140.92C49.93 141.05 49.98 141.16 50.07 141.26C50.16 141.36 50.29 141.45 50.46 141.52C50.62 141.59 50.82 141.65 51.05 141.69C51.28 141.73 51.53 141.75 51.81 141.75ZM51.81 145.26C51.53 145.26 51.27 145.29 51.05 145.34C50.82 145.39 50.63 145.46 50.48 145.54C50.33 145.62 50.21 145.71 50.12 145.82C50.04 145.92 49.99 146.03 49.99 146.13V146.3C49.99 146.4 50.03 146.5 50.12 146.61C50.2 146.71 50.32 146.81 50.48 146.89C50.63 146.97 50.82 147.04 51.05 147.09C51.28 147.14 51.53 147.17 51.81 147.17C52.09 147.17 52.35 147.14 52.57 147.09C52.8 147.04 52.99 146.97 53.14 146.89C53.29 146.81 53.41 146.72 53.5 146.61C53.59 146.51 53.63 146.4 53.63 146.3V146.13C53.63 146.03 53.59 145.93 53.5 145.82C53.42 145.72 53.3 145.62 53.14 145.54C52.99 145.46 52.8 145.39 52.57 145.34C52.34 145.28 52.09 145.26 51.81 145.26ZM51.81 142.52C51.63 142.52 51.45 142.52 51.28 142.51C51.11 142.5 50.95 142.48 50.8 142.45V143.3H52.82V142.44C52.51 142.49 52.17 142.52 51.81 142.52Z" fill="#666767"/>
<path d="M64.27 143.96C63.89 144 63.53 144.03 63.18 144.06C62.83 144.09 62.45 144.11 62.03 144.13C61.61 144.15 61.14 144.16 60.61 144.17C60.08 144.18 59.46 144.18 58.74 144.18V143.42C59.19 143.42 59.6 143.42 59.96 143.42C60.32 143.42 60.66 143.42 60.97 143.41V143C60.47 142.95 60.1 142.83 59.85 142.63C59.6 142.44 59.47 142.2 59.47 141.92V141.71C59.47 141.39 59.64 141.13 59.97 140.92C60.31 140.71 60.8 140.61 61.45 140.61C62.1 140.61 62.6 140.71 62.93 140.92C63.27 141.13 63.43 141.39 63.43 141.71V141.92C63.43 142.2 63.3 142.44 63.04 142.63C62.78 142.82 62.4 142.95 61.89 143V143.38C62.29 143.37 62.67 143.35 63.03 143.32C63.39 143.3 63.77 143.26 64.19 143.23L64.27 143.96ZM63.81 139.59V140.35H59.08V139.59H61V138.85H61.92V139.59H63.81ZM60.02 147.74V145.78H64.74V145.3H59.97V144.56H65.65V146.5H60.89V146.99H65.9V147.74H60.02ZM61.46 141.33C61.08 141.33 60.81 141.37 60.64 141.45C60.47 141.53 60.39 141.64 60.39 141.77V141.85C60.39 141.98 60.47 142.09 60.64 142.17C60.81 142.25 61.08 142.29 61.46 142.29C61.84 142.29 62.11 142.25 62.28 142.17C62.45 142.09 62.53 141.98 62.53 141.85V141.77C62.53 141.64 62.44 141.53 62.28 141.45C62.11 141.38 61.83 141.33 61.46 141.33ZM64.73 144.24V139H65.65V141.24H66.87V142.05H65.65V144.24H64.73Z" fill="#666767"/>
<path d="M74.03 139.32V140.11H69.4V141.49H74.09V142.28H71.75V143.17H75.26V143.96H67.3V143.17H70.81V142.28H68.48V139.32H74.03ZM71.28 147.92C70.87 147.92 70.49 147.88 70.16 147.8C69.82 147.72 69.54 147.61 69.3 147.47C69.06 147.33 68.88 147.16 68.76 146.97C68.63 146.78 68.57 146.57 68.57 146.35V146.03C68.57 145.8 68.63 145.6 68.76 145.4C68.89 145.21 69.07 145.04 69.3 144.91C69.54 144.77 69.82 144.66 70.16 144.59C70.5 144.51 70.87 144.47 71.28 144.47C71.69 144.47 72.07 144.51 72.4 144.59C72.73 144.67 73.02 144.78 73.25 144.92C73.49 145.06 73.67 145.23 73.8 145.41C73.93 145.6 73.99 145.81 73.99 146.03V146.35C73.99 146.57 73.93 146.77 73.8 146.96C73.67 147.15 73.49 147.31 73.26 147.45C73.02 147.59 72.74 147.7 72.4 147.78C72.07 147.88 71.69 147.92 71.28 147.92ZM71.28 145.24C71.02 145.24 70.78 145.26 70.56 145.31C70.34 145.36 70.15 145.42 70 145.5C69.84 145.58 69.72 145.67 69.63 145.77C69.54 145.87 69.5 145.98 69.5 146.09V146.3C69.5 146.41 69.54 146.52 69.63 146.62C69.72 146.72 69.84 146.81 70 146.89C70.16 146.97 70.34 147.03 70.56 147.08C70.78 147.13 71.02 147.15 71.28 147.15C71.54 147.15 71.78 147.13 72 147.08C72.22 147.03 72.41 146.97 72.56 146.89C72.72 146.81 72.84 146.72 72.93 146.62C73.02 146.52 73.06 146.41 73.06 146.3V146.09C73.06 145.98 73.02 145.87 72.93 145.77C72.84 145.67 72.72 145.58 72.56 145.5C72.4 145.42 72.22 145.36 72 145.31C71.78 145.26 71.54 145.24 71.28 145.24Z" fill="#666767"/>
<path d="M81.86 145.53C81.47 145.57 81.09 145.6 80.71 145.63C80.33 145.66 79.92 145.68 79.48 145.7C79.04 145.72 78.55 145.73 78 145.74C77.46 145.75 76.83 145.75 76.1 145.75V145.17C76.78 145.17 77.4 145.17 77.94 145.16C78.48 145.15 78.98 145.14 79.43 145.13C79.88 145.11 80.3 145.09 80.68 145.06C81.06 145.03 81.44 145 81.8 144.96L81.86 145.53ZM78.79 143.7C78.48 143.7 78.19 143.65 77.92 143.56C77.65 143.47 77.41 143.34 77.21 143.17C77.01 143.01 76.84 142.82 76.73 142.6C76.61 142.38 76.55 142.14 76.55 141.89V141.44C76.55 141.18 76.61 140.94 76.73 140.73C76.85 140.51 77.01 140.32 77.21 140.16C77.41 140 77.65 139.87 77.92 139.77C78.19 139.68 78.48 139.63 78.79 139.63C79.1 139.63 79.39 139.68 79.66 139.77C79.93 139.86 80.17 139.99 80.37 140.16C80.57 140.32 80.74 140.52 80.85 140.74C80.97 140.96 81.03 141.2 81.03 141.45V141.9C81.03 142.16 80.97 142.4 80.85 142.61C80.73 142.83 80.57 143.02 80.37 143.18C80.17 143.34 79.93 143.47 79.66 143.57C79.39 143.65 79.1 143.7 78.79 143.7ZM78.79 140.2C78.58 140.2 78.38 140.23 78.19 140.3C78 140.37 77.83 140.46 77.68 140.57C77.53 140.69 77.41 140.82 77.32 140.97C77.23 141.12 77.19 141.29 77.19 141.46V141.84C77.19 142.02 77.23 142.18 77.32 142.33C77.41 142.48 77.53 142.62 77.68 142.73C77.83 142.85 78 142.94 78.19 143C78.38 143.07 78.58 143.1 78.79 143.1C79 143.1 79.2 143.07 79.39 143C79.58 142.93 79.75 142.84 79.9 142.73C80.05 142.61 80.17 142.48 80.26 142.33C80.35 142.18 80.39 142.01 80.39 141.84V141.46C80.39 141.28 80.35 141.12 80.26 140.97C80.17 140.82 80.05 140.68 79.9 140.57C79.75 140.45 79.58 140.36 79.39 140.3C79.2 140.23 79 140.2 78.79 140.2ZM83.13 147.64H82.46V139.04H83.13V147.64Z" fill="#666767"/>
<path d="M89.56 142.21C89.53 142.29 89.45 142.4 89.33 142.54C89.21 142.68 89.08 142.81 88.93 142.94C88.73 143.12 88.51 143.3 88.26 143.49C88.01 143.68 87.76 143.87 87.49 144.05L86.94 143.38C87.24 143.17 87.52 142.96 87.79 142.75C88.05 142.55 88.27 142.36 88.44 142.2C88.55 142.09 88.65 141.98 88.73 141.87C88.81 141.76 88.88 141.65 88.92 141.54C88.97 141.42 89 141.3 89.02 141.16C89.04 141.03 89.05 140.87 89.05 140.7V140.31H87.23V139.51H91.71V140.31H90V140.66C90 140.81 90.01 140.95 90.02 141.06C90.03 141.18 90.06 141.29 90.09 141.39C90.12 141.49 90.17 141.59 90.24 141.68C90.3 141.77 90.39 141.86 90.49 141.96C90.71 142.16 90.94 142.35 91.19 142.54C91.43 142.72 91.7 142.91 91.98 143.09L91.45 143.77C91.21 143.6 90.98 143.43 90.76 143.27C90.55 143.11 90.33 142.93 90.1 142.74C89.96 142.62 89.84 142.52 89.75 142.42C89.67 142.36 89.6 142.28 89.56 142.21ZM88.73 145.9C88.73 145.67 88.79 145.46 88.91 145.26C89.03 145.06 89.21 144.88 89.44 144.73C89.67 144.58 89.95 144.46 90.28 144.38C90.61 144.3 90.98 144.25 91.39 144.25C91.8 144.25 92.18 144.29 92.5 144.38C92.83 144.46 93.11 144.58 93.34 144.73C93.57 144.88 93.74 145.06 93.87 145.26C93.99 145.46 94.05 145.67 94.05 145.9V146.28C94.05 146.51 93.99 146.72 93.87 146.92C93.75 147.12 93.57 147.3 93.34 147.45C93.11 147.6 92.83 147.72 92.5 147.8C92.17 147.88 91.8 147.93 91.39 147.93C90.98 147.93 90.6 147.89 90.28 147.8C89.95 147.72 89.67 147.6 89.44 147.45C89.21 147.3 89.04 147.12 88.91 146.92C88.79 146.72 88.73 146.51 88.73 146.28V145.9ZM93.14 145.95C93.14 145.84 93.1 145.72 93.02 145.61C92.94 145.5 92.82 145.4 92.67 145.3C92.52 145.21 92.34 145.14 92.12 145.08C91.9 145.03 91.66 145 91.39 145C91.12 145 90.88 145.03 90.66 145.08C90.44 145.13 90.26 145.21 90.11 145.3C89.96 145.39 89.84 145.49 89.76 145.61C89.68 145.72 89.64 145.84 89.64 145.95V146.21C89.64 146.32 89.68 146.44 89.76 146.55C89.84 146.66 89.96 146.76 90.11 146.86C90.26 146.95 90.44 147.02 90.66 147.08C90.88 147.13 91.12 147.16 91.39 147.16C91.66 147.16 91.9 147.13 92.12 147.08C92.34 147.03 92.52 146.95 92.67 146.86C92.82 146.77 92.94 146.67 93.02 146.55C93.1 146.44 93.14 146.32 93.14 146.21V145.95ZM93.09 144.13V141.93H91.49V141.13H93.09V139H94.01V144.13H93.09Z" fill="#666767"/>
<path d="M100.86 144.44C100.48 144.48 100.12 144.51 99.77 144.54C99.42 144.57 99.04 144.59 98.62 144.61C98.2 144.63 97.73 144.64 97.2 144.65C96.67 144.66 96.05 144.66 95.33 144.66V143.88C95.78 143.88 96.19 143.88 96.56 143.88C96.93 143.88 97.27 143.88 97.58 143.87V143.33C97.07 143.27 96.69 143.14 96.44 142.93C96.19 142.72 96.06 142.46 96.06 142.16V141.92C96.06 141.58 96.23 141.3 96.56 141.07C96.89 140.84 97.39 140.73 98.05 140.73C98.38 140.73 98.66 140.76 98.91 140.82C99.16 140.88 99.36 140.97 99.53 141.07C99.7 141.18 99.82 141.3 99.91 141.45C99.99 141.59 100.04 141.75 100.04 141.92V142.16C100.04 142.46 99.91 142.72 99.66 142.93C99.41 143.14 99.03 143.28 98.52 143.33V143.84C98.91 143.83 99.29 143.81 99.65 143.78C100.01 143.76 100.39 143.72 100.8 143.69L100.86 144.44ZM100.4 139.69V140.46H95.67V139.69H97.59V138.9H98.51V139.69H100.4ZM96.51 145.22H102.24V147.77H101.31V146.01H96.51V145.22ZM98.05 141.45C97.67 141.45 97.4 141.5 97.23 141.61C97.06 141.71 96.98 141.84 96.98 141.98V142.09C96.98 142.23 97.06 142.36 97.23 142.46C97.4 142.56 97.67 142.62 98.05 142.62C98.43 142.62 98.7 142.57 98.87 142.46C99.04 142.36 99.12 142.23 99.12 142.09V141.98C99.12 141.84 99.03 141.71 98.87 141.61C98.7 141.5 98.42 141.45 98.05 141.45ZM101.32 144.77V139H102.24V141.68H103.46V142.49H102.24V144.77H101.32Z" fill="#666767"/>
<path d="M108.97 140.75H103.99V139.96H106.02V138.92H106.94V139.96H108.96V140.75H108.97ZM106.48 144.56C106.14 144.56 105.85 144.51 105.6 144.42C105.35 144.33 105.14 144.21 104.97 144.06C104.8 143.91 104.67 143.74 104.59 143.55C104.51 143.36 104.46 143.16 104.46 142.96V142.68C104.46 142.47 104.5 142.27 104.59 142.08C104.68 141.89 104.8 141.72 104.97 141.57C105.14 141.42 105.35 141.3 105.6 141.21C105.85 141.12 106.15 141.07 106.48 141.07C106.82 141.07 107.11 141.12 107.36 141.21C107.61 141.3 107.82 141.42 107.99 141.57C108.16 141.72 108.29 141.89 108.37 142.08C108.45 142.27 108.5 142.47 108.5 142.67V142.95C108.5 143.15 108.46 143.35 108.37 143.54C108.29 143.73 108.16 143.9 107.99 144.05C107.82 144.2 107.61 144.32 107.36 144.41C107.12 144.52 106.82 144.56 106.48 144.56ZM106.48 143.82C106.67 143.82 106.83 143.8 106.98 143.74C107.12 143.69 107.24 143.62 107.34 143.54C107.43 143.46 107.5 143.36 107.55 143.25C107.6 143.14 107.62 143.03 107.62 142.92V142.73C107.62 142.62 107.6 142.51 107.55 142.4C107.5 142.29 107.43 142.19 107.34 142.11C107.25 142.03 107.13 141.96 106.99 141.91C106.85 141.86 106.68 141.83 106.49 141.83C106.3 141.83 106.13 141.86 105.99 141.91C105.85 141.96 105.73 142.03 105.64 142.11C105.55 142.19 105.48 142.29 105.43 142.4C105.38 142.51 105.36 142.62 105.36 142.73V142.92C105.36 143.03 105.38 143.14 105.43 143.25C105.48 143.36 105.55 143.46 105.64 143.54C105.73 143.63 105.85 143.69 106 143.74C106.13 143.79 106.3 143.82 106.48 143.82ZM106.37 146.77H110.97V147.58H105.44V145.18H106.37V146.77ZM111.97 142.39H110.74V145.3H109.82V139H110.74V141.58H111.97V142.39Z" fill="#666767"/>
<path d="M118.32 147.67V144.81H114.81V144.02H122.77V144.81H119.26V147.67H118.32ZM115.81 140.69V139.9H118.31V138.95H119.24V139.9H121.75V140.69H119.24V140.76C119.24 140.85 119.25 140.95 119.27 141.04C119.29 141.13 119.33 141.22 119.4 141.3C119.46 141.38 119.55 141.47 119.67 141.55C119.79 141.63 119.93 141.72 120.12 141.81C120.43 141.95 120.75 142.09 121.07 142.22C121.39 142.35 121.73 142.48 122.09 142.6L121.78 143.32C121.38 143.18 121.02 143.04 120.7 142.91C120.38 142.78 120.09 142.66 119.83 142.55C119.52 142.41 119.28 142.29 119.12 142.19C118.96 142.09 118.85 141.98 118.78 141.87H118.77C118.7 141.99 118.59 142.1 118.43 142.2C118.27 142.3 118.04 142.42 117.72 142.56C117.46 142.67 117.17 142.79 116.85 142.92C116.53 143.05 116.17 143.18 115.77 143.32L115.44 142.6C115.8 142.47 116.14 142.35 116.47 142.22C116.8 142.09 117.11 141.96 117.42 141.81C117.6 141.73 117.75 141.64 117.86 141.56C117.97 141.47 118.06 141.38 118.13 141.3C118.2 141.21 118.24 141.12 118.27 141.03C118.29 140.94 118.31 140.85 118.31 140.76V140.69H115.81Z" fill="#666767"/>
<path d="M126.15 142.16C126.12 142.24 126.04 142.35 125.92 142.49C125.8 142.63 125.67 142.76 125.52 142.89C125.32 143.07 125.1 143.25 124.85 143.44C124.6 143.63 124.35 143.82 124.08 144L123.53 143.33C123.83 143.12 124.11 142.91 124.38 142.7C124.64 142.5 124.86 142.31 125.03 142.15C125.14 142.04 125.24 141.93 125.32 141.82C125.4 141.71 125.47 141.6 125.51 141.49C125.56 141.37 125.59 141.25 125.61 141.11C125.63 140.98 125.64 140.82 125.64 140.65V140.28H123.82V139.48H128.3V140.28H126.59V140.61C126.59 140.76 126.6 140.9 126.61 141.01C126.62 141.13 126.65 141.24 126.68 141.34C126.71 141.44 126.76 141.54 126.83 141.63C126.89 141.72 126.98 141.81 127.08 141.91C127.3 142.11 127.53 142.3 127.78 142.49C128.02 142.67 128.29 142.86 128.57 143.04L128.04 143.72C127.8 143.55 127.57 143.38 127.35 143.22C127.14 143.06 126.92 142.88 126.69 142.69C126.55 142.57 126.43 142.47 126.34 142.38C126.25 142.31 126.19 142.23 126.15 142.16ZM124.89 144.5H130.6V147.75H129.67V145.29H124.89V144.5ZM129.68 144.05V141.88H128.08V141.08H129.68V139H130.6V144.05H129.68Z" fill="#666767"/>
<path d="M137.53 145.43C137.14 145.47 136.77 145.5 136.41 145.53C136.05 145.56 135.67 145.58 135.25 145.6C134.83 145.62 134.36 145.63 133.84 145.64C133.32 145.65 132.69 145.65 131.97 145.65V145.07C132.31 145.07 132.64 145.07 132.93 145.07C133.23 145.07 133.51 145.07 133.78 145.06V142.32H134.45V145.05C134.75 145.04 135.03 145.03 135.3 145.02C135.57 145.01 135.82 144.99 136.07 144.98C136.31 144.97 136.55 144.95 136.78 144.93C137.01 144.91 137.24 144.88 137.47 144.86L137.53 145.43ZM136.7 139.87V140.91C136.7 141.14 136.7 141.38 136.69 141.64C136.68 141.9 136.67 142.17 136.65 142.43C136.63 142.69 136.61 142.93 136.58 143.16C136.55 143.39 136.52 143.58 136.48 143.73L135.81 143.65C135.85 143.46 135.89 143.26 135.92 143.03C135.95 142.81 135.97 142.58 135.99 142.36C136.01 142.13 136.02 141.91 136.03 141.68C136.04 141.45 136.04 141.24 136.04 141.04V140.46H132.42V139.87H136.7ZM138.8 142.31H140.16V142.9H138.8V147.63H138.13V139.03H138.8V142.31Z" fill="#666767"/>
<path d="M145.62 142.21C145.59 142.29 145.51 142.4 145.39 142.54C145.27 142.68 145.14 142.81 144.99 142.94C144.79 143.12 144.57 143.3 144.32 143.49C144.07 143.68 143.82 143.87 143.55 144.05L143 143.38C143.3 143.17 143.58 142.96 143.85 142.75C144.11 142.55 144.33 142.36 144.5 142.2C144.61 142.09 144.71 141.98 144.79 141.87C144.87 141.76 144.94 141.65 144.98 141.54C145.03 141.42 145.06 141.3 145.08 141.16C145.1 141.03 145.11 140.87 145.11 140.7V140.31H143.29V139.51H147.77V140.31H146.06V140.66C146.06 140.81 146.07 140.95 146.08 141.06C146.09 141.18 146.12 141.29 146.15 141.39C146.18 141.49 146.23 141.59 146.3 141.68C146.36 141.77 146.45 141.86 146.55 141.96C146.77 142.16 147 142.35 147.25 142.54C147.49 142.72 147.76 142.91 148.04 143.09L147.51 143.77C147.27 143.6 147.04 143.43 146.82 143.27C146.61 143.11 146.39 142.93 146.16 142.74C146.02 142.62 145.9 142.52 145.81 142.42C145.72 142.36 145.66 142.28 145.62 142.21ZM144.78 145.9C144.78 145.67 144.84 145.46 144.96 145.26C145.08 145.06 145.26 144.88 145.49 144.73C145.72 144.58 146 144.46 146.33 144.38C146.66 144.3 147.03 144.25 147.44 144.25C147.85 144.25 148.23 144.29 148.55 144.38C148.88 144.46 149.16 144.58 149.39 144.73C149.62 144.88 149.79 145.06 149.92 145.26C150.04 145.46 150.1 145.67 150.1 145.9V146.28C150.1 146.51 150.04 146.72 149.92 146.92C149.8 147.12 149.62 147.3 149.39 147.45C149.16 147.6 148.88 147.72 148.55 147.8C148.22 147.88 147.85 147.93 147.44 147.93C147.03 147.93 146.65 147.89 146.33 147.8C146 147.72 145.72 147.6 145.49 147.45C145.26 147.3 145.09 147.12 144.96 146.92C144.84 146.72 144.78 146.51 144.78 146.28V145.9ZM149.2 145.95C149.2 145.84 149.16 145.72 149.08 145.61C149 145.5 148.88 145.4 148.73 145.3C148.58 145.21 148.4 145.14 148.18 145.08C147.96 145.03 147.72 145 147.45 145C147.18 145 146.94 145.03 146.72 145.08C146.5 145.13 146.32 145.21 146.17 145.3C146.02 145.39 145.9 145.49 145.82 145.61C145.74 145.72 145.7 145.84 145.7 145.95V146.21C145.7 146.32 145.74 146.44 145.82 146.55C145.9 146.66 146.02 146.76 146.17 146.86C146.32 146.95 146.5 147.02 146.72 147.08C146.94 147.13 147.18 147.16 147.45 147.16C147.72 147.16 147.96 147.13 148.18 147.08C148.4 147.03 148.58 146.95 148.73 146.86C148.88 146.77 149 146.67 149.08 146.55C149.16 146.44 149.2 146.32 149.2 146.21V145.95ZM149.15 144.13V141.93H147.55V141.13H149.15V139H150.07V144.13H149.15Z" fill="#666767"/>
<path d="M156.62 143.23C156.29 143.27 155.98 143.31 155.69 143.33C155.4 143.36 155.08 143.38 154.73 143.39C154.38 143.41 153.97 143.42 153.51 143.42C153.05 143.43 152.48 143.43 151.8 143.43V139.54H155.82V140.34H152.72V142.63C153.2 142.63 153.61 142.63 153.95 142.62C154.29 142.61 154.59 142.6 154.87 142.59C155.15 142.58 155.41 142.56 155.67 142.54C155.93 142.52 156.22 142.49 156.54 142.45L156.62 143.23ZM153.04 145.89C153.04 145.66 153.1 145.45 153.22 145.25C153.34 145.05 153.51 144.87 153.74 144.72C153.97 144.57 154.24 144.45 154.56 144.36C154.88 144.27 155.25 144.23 155.66 144.23C156.07 144.23 156.43 144.27 156.76 144.36C157.08 144.45 157.36 144.57 157.58 144.72C157.81 144.87 157.98 145.05 158.1 145.25C158.22 145.45 158.28 145.66 158.28 145.89V146.27C158.28 146.5 158.22 146.71 158.1 146.91C157.98 147.11 157.81 147.29 157.58 147.44C157.35 147.59 157.08 147.71 156.76 147.8C156.44 147.89 156.07 147.93 155.66 147.93C155.25 147.93 154.89 147.89 154.56 147.8C154.24 147.71 153.96 147.59 153.74 147.44C153.51 147.29 153.34 147.11 153.22 146.91C153.1 146.71 153.04 146.5 153.04 146.27V145.89ZM157.36 145.94C157.36 145.83 157.32 145.71 157.24 145.6C157.16 145.48 157.05 145.38 156.9 145.29C156.75 145.2 156.57 145.13 156.36 145.07C156.15 145.01 155.91 144.98 155.65 144.98C155.39 144.98 155.15 145.01 154.94 145.07C154.73 145.13 154.55 145.2 154.4 145.29C154.25 145.38 154.14 145.48 154.06 145.6C153.98 145.72 153.94 145.83 153.94 145.94V146.2C153.94 146.31 153.98 146.43 154.06 146.54C154.14 146.66 154.25 146.76 154.4 146.85C154.55 146.94 154.73 147.01 154.94 147.07C155.15 147.13 155.39 147.15 155.65 147.15C155.91 147.15 156.15 147.12 156.36 147.07C156.57 147.01 156.75 146.94 156.9 146.85C157.05 146.76 157.16 146.66 157.24 146.54C157.32 146.42 157.36 146.31 157.36 146.2V145.94ZM159.47 141.81H158.24V144.11H157.32V139H158.24V141H159.47V141.81Z" fill="#666767"/>
<path d="M165.03 140.75H160.05V139.96H162.08V138.92H163V139.96H165.02V140.75H165.03ZM162.54 144.56C162.2 144.56 161.91 144.51 161.66 144.42C161.41 144.33 161.2 144.21 161.03 144.06C160.86 143.91 160.73 143.74 160.65 143.55C160.57 143.36 160.52 143.16 160.52 142.96V142.68C160.52 142.47 160.56 142.27 160.65 142.08C160.74 141.89 160.86 141.72 161.03 141.57C161.2 141.42 161.41 141.3 161.66 141.21C161.91 141.12 162.21 141.07 162.54 141.07C162.88 141.07 163.17 141.12 163.42 141.21C163.67 141.3 163.88 141.42 164.05 141.57C164.22 141.72 164.35 141.89 164.43 142.08C164.51 142.27 164.56 142.47 164.56 142.67V142.95C164.56 143.15 164.52 143.35 164.43 143.54C164.35 143.73 164.22 143.9 164.05 144.05C163.88 144.2 163.67 144.32 163.42 144.41C163.18 144.52 162.88 144.56 162.54 144.56ZM162.54 143.82C162.73 143.82 162.89 143.8 163.04 143.74C163.18 143.69 163.3 143.62 163.4 143.54C163.49 143.46 163.56 143.36 163.61 143.25C163.66 143.14 163.68 143.03 163.68 142.92V142.73C163.68 142.62 163.66 142.51 163.61 142.4C163.56 142.29 163.49 142.19 163.4 142.11C163.31 142.03 163.19 141.96 163.05 141.91C162.91 141.86 162.74 141.83 162.55 141.83C162.36 141.83 162.19 141.86 162.05 141.91C161.91 141.96 161.79 142.03 161.7 142.11C161.61 142.19 161.54 142.29 161.49 142.4C161.44 142.51 161.42 142.62 161.42 142.73V142.92C161.42 143.03 161.44 143.14 161.49 143.25C161.54 143.36 161.61 143.46 161.7 143.54C161.79 143.63 161.91 143.69 162.06 143.74C162.19 143.79 162.35 143.82 162.54 143.82ZM162.43 146.77H167.03V147.58H161.5V145.18H162.43V146.77ZM168.03 142.39H166.8V145.3H165.88V139H166.8V141.58H168.03V142.39Z" fill="#666767"/>
<path d="M177.69 144.09H175.29V145.73H178.81V146.52H170.85V145.73H174.36V144.09H171.97V139.64H172.89V141.12H176.77V139.63H177.69V144.09ZM172.9 143.3H176.78V141.91H172.9V143.3Z" fill="#666767"/>
<path d="M181.94 141.99C181.91 142.07 181.84 142.18 181.71 142.33C181.58 142.47 181.45 142.61 181.31 142.74C181.12 142.92 180.89 143.12 180.63 143.34C180.37 143.56 180.12 143.77 179.87 143.97L179.32 143.31C179.62 143.08 179.91 142.85 180.18 142.61C180.45 142.38 180.67 142.18 180.83 142.02C180.95 141.9 181.05 141.79 181.13 141.68C181.21 141.57 181.27 141.46 181.32 141.34C181.37 141.22 181.4 141.1 181.42 140.97C181.44 140.84 181.45 140.69 181.45 140.53V139.39H182.39V140.49C182.39 140.63 182.39 140.76 182.4 140.88C182.41 141 182.43 141.1 182.46 141.2C182.49 141.3 182.54 141.4 182.61 141.5C182.68 141.6 182.77 141.7 182.88 141.8C183.1 142 183.34 142.21 183.6 142.42C183.86 142.63 184.13 142.84 184.41 143.04L183.86 143.69C183.62 143.51 183.38 143.32 183.16 143.14C182.94 142.96 182.71 142.77 182.49 142.58C182.35 142.46 182.23 142.35 182.14 142.25C182.04 142.15 181.98 142.06 181.94 141.99ZM181.04 145.89C181.04 145.66 181.1 145.45 181.22 145.25C181.34 145.05 181.51 144.87 181.74 144.72C181.97 144.57 182.24 144.45 182.56 144.36C182.88 144.27 183.25 144.23 183.66 144.23C184.07 144.23 184.43 144.27 184.76 144.36C185.08 144.45 185.36 144.57 185.58 144.72C185.81 144.87 185.98 145.05 186.1 145.25C186.22 145.45 186.28 145.66 186.28 145.89V146.27C186.28 146.5 186.22 146.71 186.1 146.91C185.98 147.11 185.81 147.29 185.58 147.44C185.35 147.59 185.08 147.71 184.76 147.8C184.44 147.89 184.07 147.93 183.66 147.93C183.25 147.93 182.89 147.89 182.56 147.8C182.24 147.71 181.96 147.59 181.74 147.44C181.51 147.29 181.34 147.11 181.22 146.91C181.1 146.71 181.04 146.5 181.04 146.27V145.89ZM185.36 145.94C185.36 145.83 185.32 145.71 185.24 145.6C185.16 145.48 185.05 145.38 184.9 145.29C184.75 145.2 184.57 145.13 184.36 145.07C184.15 145.01 183.91 144.98 183.65 144.98C183.39 144.98 183.15 145.01 182.94 145.07C182.73 145.13 182.55 145.2 182.4 145.29C182.25 145.38 182.14 145.48 182.06 145.6C181.98 145.72 181.94 145.83 181.94 145.94V146.2C181.94 146.31 181.98 146.43 182.06 146.54C182.14 146.66 182.25 146.76 182.4 146.85C182.55 146.94 182.73 147.01 182.94 147.07C183.15 147.13 183.39 147.15 183.65 147.15C183.91 147.15 184.15 147.12 184.36 147.07C184.57 147.01 184.75 146.94 184.9 146.85C185.05 146.76 185.16 146.66 185.24 146.54C185.32 146.42 185.36 146.31 185.36 146.2V145.94ZM187.47 141.91H186.24V144.12H185.32V139H186.24V141.1H187.47V141.91Z" fill="#666767"/>
<path d="M99.41 65.13H110.89L114.6 58.7L115.43 57.26L118.07 58.78C118.53 59.05 119.09 58.66 119.01 58.14L118.16 52.52L117 44.82C116.94 44.42 116.52 44.18 116.14 44.33L108.35 47.39L104.47 48.91L103.59 49.26C103.1 49.45 103.05 50.13 103.5 50.4L103.58 50.45L105.83 51.75L105 53.19L104.48 54.08H101.48H88.72H79.68L67.27 32.58L71 26.12L65.54 28.26C64.89 28.51 64.17 28.46 63.56 28.11C62.95 27.76 62.55 27.16 62.44 26.47L61.52 20.39L54.48 32.58L73.28 65.15H86.62H99.41V65.13Z" fill="#79B12B"/>
<path d="M64.08 26.2C64.14 26.6 64.56 26.84 64.94 26.7L72.33 23.8L77.49 21.78C77.98 21.59 78.03 20.91 77.58 20.64L75.02 19.16L75.85 17.72L79.69 11.07H104.51L114.77 28.84H127.55L110.89 0H73.29L66.26 12.18L65.43 13.62L63.02 12.23C62.56 11.96 62 12.35 62.08 12.87L62.86 18.06L64.08 26.2Z" fill="#79B12B"/>
<path d="M146.61 69.43C146.55 69.03 146.13 68.79 145.75 68.93L138.36 71.83L133.2 73.85C132.71 74.04 132.66 74.72 133.11 74.99L135.67 76.47L134.84 77.91L131 84.56H106.18L95.93 66.79H83.15L99.8 95.64H137.4L144.43 83.46L145.26 82.02L147.67 83.41C148.13 83.68 148.69 83.29 148.61 82.77L147.83 77.58L146.61 69.43Z" fill="#249E4E"/>
<path d="M137.41 30.5H124.07H111.29H99.8L96.09 36.93L95.26 38.37L92.62 36.85C92.16 36.58 91.6 36.97 91.68 37.49L92.53 43.11L93.69 50.82C93.75 51.22 94.17 51.46 94.55 51.32L102.34 48.26L106.22 46.74L107.1 46.39C107.59 46.2 107.64 45.52 107.19 45.25L107.11 45.2L104.86 43.9L105.69 42.46L106.21 41.57H109.21H121.99H131.03L143.44 63.07L139.71 69.53L145.17 67.39C145.82 67.14 146.54 67.19 147.15 67.54C147.76 67.89 148.16 68.49 148.27 69.18L149.19 75.26L156.23 63.07L137.41 30.5Z" fill="#249E4E"/>
</g>
<defs>
<clipPath id="clip0_63_112">
<rect width="217.99" height="147.92" fill="white"/>
</clipPath>
</defs>
</svg>
