<svg width="14" height="15" viewBox="0 0 14 15" fill="none" xmlns="http://www.w3.org/2000/svg">
<path d="M12.0833 0H1.81246V1.8125H0.604126V3.02083H1.81246V4.22917H0.604126V5.4375H1.81246V6.64583H0.604126V7.85417H1.81246V9.0625H0.604126V10.2708H1.81246V11.4792H0.604126V12.6875H1.81246V14.5H12.0833C12.564 14.5 13.025 14.309 13.3649 13.9691C13.7048 13.6292 13.8958 13.1682 13.8958 12.6875V1.8125C13.8958 1.3318 13.7048 0.870779 13.3649 0.530869C13.025 0.190959 12.564 0 12.0833 0V0ZM12.6875 12.6875C12.6875 12.8477 12.6238 13.0014 12.5105 13.1147C12.3972 13.228 12.2435 13.2917 12.0833 13.2917H3.02079V1.20833H12.0833C12.2435 1.20833 12.3972 1.27199 12.5105 1.38529C12.6238 1.49859 12.6875 1.65227 12.6875 1.8125V12.6875ZM7.85413 7.25C8.2126 7.25 8.56303 7.1437 8.8611 6.94454C9.15916 6.74538 9.39147 6.46231 9.52866 6.13111C9.66584 5.79992 9.70174 5.43549 9.6318 5.0839C9.56186 4.73231 9.38924 4.40935 9.13576 4.15587C8.88227 3.90239 8.55932 3.72976 8.20773 3.65983C7.85614 3.58989 7.4917 3.62578 7.16051 3.76297C6.82932 3.90015 6.54625 4.13246 6.34709 4.43053C6.14793 4.72859 6.04163 5.07902 6.04163 5.4375C6.04163 5.91821 6.23259 6.37922 6.57249 6.71913C6.9124 7.05904 7.37342 7.25 7.85413 7.25ZM10.875 9.66667V10.875H9.66663V9.66667C9.66663 9.50643 9.60297 9.35276 9.48967 9.23946C9.37637 9.12615 9.22269 9.0625 9.06246 9.0625H6.64579C6.48556 9.0625 6.33189 9.12615 6.21858 9.23946C6.10528 9.35276 6.04163 9.50643 6.04163 9.66667V10.875H4.83329V9.66667C4.83329 9.18596 5.02425 8.72495 5.36416 8.38504C5.70407 8.04513 6.16509 7.85417 6.64579 7.85417H9.06246C9.54316 7.85417 10.0042 8.04513 10.3441 8.38504C10.684 8.72495 10.875 9.18596 10.875 9.66667Z" fill="#737584"/>
</svg>
