<svg width="15" height="15" viewBox="0 0 15 15" fill="none" xmlns="http://www.w3.org/2000/svg">
<path fill-rule="evenodd" clip-rule="evenodd" d="M4.42688 0C4.25917 3.4324e-05 4.09834 0.0639063 3.97976 0.177567L0.185296 3.81375C0.0666881 3.92738 3.58181e-05 4.0815 0 4.24221V11.5146C0 11.9968 0.199887 12.4592 0.555687 12.8002C0.911487 13.1411 1.39406 13.3327 1.89723 13.3327H5.05929C5.22701 13.3327 5.38787 13.2688 5.50647 13.1552C5.62507 13.0415 5.6917 12.8874 5.6917 12.7266C5.6917 12.5659 5.62507 12.4118 5.50647 12.2981C5.38787 12.1845 5.22701 12.1206 5.05929 12.1206H1.89723C1.72951 12.1206 1.56865 12.0568 1.45005 11.9431C1.33145 11.8295 1.26482 11.6753 1.26482 11.5146V4.84824H4.42688C4.5946 4.84824 4.75546 4.78439 4.87406 4.67074C4.99266 4.55709 5.05929 4.40294 5.05929 4.24221V1.21206H9.48617C9.65389 1.21206 9.81475 1.27591 9.93335 1.38956C10.0519 1.50322 10.1186 1.65736 10.1186 1.81809V4.84824C10.1186 5.00897 10.1852 5.16312 10.3038 5.27677C10.4224 5.39043 10.5833 5.45428 10.751 5.45428C10.9187 5.45428 11.0796 5.39043 11.1982 5.27677C11.3168 5.16312 11.3834 5.00897 11.3834 4.84824V1.81809C11.3834 1.3359 11.1835 0.873465 10.8277 0.532507C10.4719 0.191548 9.98934 0 9.48617 0H4.42688ZM3.79447 3.63618H2.15905L3.79447 2.06899V3.63618Z" fill="#6E707F"/>
<path fill-rule="evenodd" clip-rule="evenodd" d="M8.37929 6.3636C8.37929 6.24305 8.32932 6.12743 8.24037 6.04219C8.15142 5.95695 8.03077 5.90906 7.90498 5.90906C7.77919 5.90906 7.65854 5.95695 7.56959 6.04219C7.48064 6.12743 7.43067 6.24305 7.43067 6.3636V6.81815H6.95636C6.83057 6.81815 6.70993 6.86604 6.62098 6.95128C6.53203 7.03653 6.48206 7.15214 6.48206 7.27269C6.48206 7.39325 6.53203 7.50886 6.62098 7.59411C6.70993 7.67935 6.83057 7.72724 6.95636 7.72724V10.4545C6.83057 10.4545 6.70993 10.5024 6.62098 10.5876C6.53203 10.6729 6.48206 10.7885 6.48206 10.9091C6.48206 11.0296 6.53203 11.1452 6.62098 11.2305C6.70993 11.3157 6.83057 11.3636 6.95636 11.3636H7.43067V11.8181C7.43067 11.9387 7.48064 12.0543 7.56959 12.1396C7.65854 12.2248 7.77919 12.2727 7.90498 12.2727C8.03077 12.2727 8.15142 12.2248 8.24037 12.1396C8.32932 12.0543 8.37929 11.9387 8.37929 11.8181V11.3636H8.8536V11.8181C8.8536 11.9387 8.90357 12.0543 8.99252 12.1396C9.08147 12.2248 9.20211 12.2727 9.32791 12.2727C9.4537 12.2727 9.57434 12.2248 9.66329 12.1396C9.75224 12.0543 9.80221 11.9387 9.80221 11.8181V11.3636H10.0394C10.3299 11.3635 10.6135 11.2783 10.8519 11.1192C11.0904 10.9601 11.2724 10.7349 11.3733 10.4739C11.4743 10.2128 11.4894 9.92833 11.4167 9.65875C11.344 9.38917 11.187 9.14738 10.9666 8.96588C11.1165 8.76159 11.2049 8.52182 11.2222 8.27268C11.2396 8.02355 11.1853 7.77464 11.0651 7.55307C10.945 7.33151 10.7637 7.1458 10.541 7.01621C10.3183 6.88661 10.0628 6.8181 9.80221 6.81815V6.3636C9.80221 6.24305 9.75224 6.12743 9.66329 6.04219C9.57434 5.95695 9.4537 5.90906 9.32791 5.90906C9.20211 5.90906 9.08147 5.95695 8.99252 6.04219C8.90357 6.12743 8.8536 6.24305 8.8536 6.3636V6.81815H8.37929V6.3636ZM9.32791 10.4545H7.90498V9.54542H10.0394C10.1652 9.54542 10.2858 9.59331 10.3748 9.67855C10.4637 9.7638 10.5137 9.87941 10.5137 9.99997C10.5137 10.1205 10.4637 10.2361 10.3748 10.3214C10.2858 10.4066 10.1652 10.4545 10.0394 10.4545H9.32791ZM9.32791 7.72724H7.90498V8.63633H9.80221C9.92801 8.63633 10.0487 8.58844 10.1376 8.5032C10.2266 8.41795 10.2765 8.30234 10.2765 8.18178C10.2765 8.06123 10.2266 7.94562 10.1376 7.86037C10.0487 7.77513 9.92801 7.72724 9.80221 7.72724H9.32791Z" fill="#6E707F"/>
</svg>
