<svg width="13" height="13" viewBox="0 0 13 13" fill="none" xmlns="http://www.w3.org/2000/svg">
<path d="M12.0059 1.12767L9.38089 1.14173L9.37554 0.141743C9.37517 0.0729936 9.31862 0.0170456 9.24987 0.0174139L8.37488 0.0221002C8.30613 0.0224685 8.25018 0.0790189 8.25055 0.147768L8.25591 1.14775L4.25596 1.16918L4.25061 0.169191C4.25024 0.100442 4.19369 0.0444944 4.12494 0.0448626L3.24995 0.049549C3.1812 0.0499172 3.12526 0.106468 3.12563 0.175217L3.13098 1.1752L0.506018 1.18926C0.22946 1.19074 0.00722204 1.41537 0.00870327 1.69193L0.0642703 12.0668C0.0657515 12.3433 0.290383 12.5656 0.566941 12.5641L12.0668 12.5025C12.3433 12.501 12.5656 12.2764 12.5641 11.9998L12.5085 1.62498C12.507 1.34843 12.2824 1.12619 12.0059 1.12767ZM11.4358 11.3809L1.18591 11.4358L1.15411 5.49835L11.404 5.44346L11.4358 11.3809ZM1.14842 4.43587L1.13703 2.3109L3.13701 2.30019L3.14102 3.05018C3.14139 3.11892 3.19794 3.17487 3.26669 3.1745L4.14168 3.16982C4.21043 3.16945 4.26638 3.1129 4.26601 3.04415L4.26199 2.29416L8.26193 2.27274L8.26595 3.02273C8.26632 3.09148 8.32287 3.14742 8.39162 3.14706L9.26661 3.14237C9.33535 3.142 9.3913 3.08545 9.39093 3.0167L9.38692 2.26671L11.3869 2.256L11.3983 4.38097L1.14842 4.43587Z" fill="black" fill-opacity="0.25"/>
</svg>
