<svg width="12" height="14" viewBox="0 0 12 14" fill="none" xmlns="http://www.w3.org/2000/svg">
<path fill-rule="evenodd" clip-rule="evenodd" d="M4.24421 0C4.08342 3.43382e-05 3.92923 0.0639327 3.81555 0.17764L0.177651 3.81533C0.0639364 3.929 3.43402e-05 4.08318 0 4.24397V7.88165V11.5193C0 12.0017 0.191639 12.4644 0.532757 12.8055C0.873876 13.1466 1.33653 13.3382 1.81895 13.3382H4.85053C5.01133 13.3382 5.16555 13.2743 5.27926 13.1606C5.39296 13.0469 5.45684 12.8927 5.45684 12.7319C5.45684 12.5711 5.39296 12.4169 5.27926 12.3032C5.16555 12.1895 5.01133 12.1256 4.85053 12.1256H1.81895C1.65814 12.1256 1.50392 12.0617 1.39022 11.948C1.27651 11.8343 1.21263 11.6801 1.21263 11.5193V8.18479V4.85025H4.24421C4.40502 4.85025 4.55923 4.78637 4.67294 4.67267C4.78665 4.55897 4.85053 4.40476 4.85053 4.24397V1.21256H9.09474C9.25554 1.21256 9.40976 1.27644 9.52347 1.39014C9.63717 1.50384 9.70105 1.65805 9.70105 1.81884V4.85025C9.70105 5.01104 9.76493 5.16525 9.87864 5.27895C9.99234 5.39265 10.1466 5.45653 10.3074 5.45653C10.4682 5.45653 10.6224 5.39265 10.7361 5.27895C10.8498 5.16525 10.9137 5.01104 10.9137 4.85025V1.81884C10.9137 1.33646 10.722 0.873826 10.3809 0.532727C10.0398 0.191628 9.57715 0 9.09474 0H4.24421ZM3.63789 3.63769H2.06996L3.63789 2.06984V3.63769Z" fill="#6E707F"/>
<mask id="path-2-inside-1_248_773" fill="white">
<path fill-rule="evenodd" clip-rule="evenodd" d="M6.16232 12.5779C6.04016 12.5779 5.923 12.5209 5.83662 12.4195C5.75024 12.3182 5.70171 12.1807 5.70171 12.0373C5.70171 11.8939 5.75024 11.7564 5.83662 11.655C5.923 11.5536 6.04016 11.4967 6.16232 11.4967H10.7684C10.8905 11.4967 11.0077 11.5536 11.0941 11.655C11.1805 11.7564 11.229 11.8939 11.229 12.0373C11.229 12.1807 11.1805 12.3182 11.0941 12.4195C11.0077 12.5209 10.8905 12.5779 10.7684 12.5779H6.16232ZM6.16232 9.87485C6.04016 9.87485 5.923 9.81789 5.83662 9.71651C5.75024 9.61513 5.70171 9.47762 5.70171 9.33424C5.70171 9.19087 5.75024 9.05336 5.83662 8.95198C5.923 8.85059 6.04016 8.79364 6.16232 8.79364H10.7684C10.8905 8.79364 11.0077 8.85059 11.0941 8.95198C11.1805 9.05336 11.229 9.19087 11.229 9.33424C11.229 9.47762 11.1805 9.61513 11.0941 9.71651C11.0077 9.81789 10.8905 9.87485 10.7684 9.87485H6.16232ZM6.16232 7.17182C6.04016 7.17182 5.923 7.11486 5.83662 7.01348C5.75024 6.9121 5.70171 6.77459 5.70171 6.63121C5.70171 6.48784 5.75024 6.35033 5.83662 6.24895C5.923 6.14756 6.04016 6.09061 6.16232 6.09061H10.7684C10.8905 6.09061 11.0077 6.14756 11.0941 6.24895C11.1805 6.35033 11.229 6.48784 11.229 6.63121C11.229 6.77459 11.1805 6.9121 11.0941 7.01348C11.0077 7.11486 10.8905 7.17182 10.7684 7.17182H6.16232Z"/>
</mask>
<path fill-rule="evenodd" clip-rule="evenodd" d="M6.16232 12.5779C6.04016 12.5779 5.923 12.5209 5.83662 12.4195C5.75024 12.3182 5.70171 12.1807 5.70171 12.0373C5.70171 11.8939 5.75024 11.7564 5.83662 11.655C5.923 11.5536 6.04016 11.4967 6.16232 11.4967H10.7684C10.8905 11.4967 11.0077 11.5536 11.0941 11.655C11.1805 11.7564 11.229 11.8939 11.229 12.0373C11.229 12.1807 11.1805 12.3182 11.0941 12.4195C11.0077 12.5209 10.8905 12.5779 10.7684 12.5779H6.16232ZM6.16232 9.87485C6.04016 9.87485 5.923 9.81789 5.83662 9.71651C5.75024 9.61513 5.70171 9.47762 5.70171 9.33424C5.70171 9.19087 5.75024 9.05336 5.83662 8.95198C5.923 8.85059 6.04016 8.79364 6.16232 8.79364H10.7684C10.8905 8.79364 11.0077 8.85059 11.0941 8.95198C11.1805 9.05336 11.229 9.19087 11.229 9.33424C11.229 9.47762 11.1805 9.61513 11.0941 9.71651C11.0077 9.81789 10.8905 9.87485 10.7684 9.87485H6.16232ZM6.16232 7.17182C6.04016 7.17182 5.923 7.11486 5.83662 7.01348C5.75024 6.9121 5.70171 6.77459 5.70171 6.63121C5.70171 6.48784 5.75024 6.35033 5.83662 6.24895C5.923 6.14756 6.04016 6.09061 6.16232 6.09061H10.7684C10.8905 6.09061 11.0077 6.14756 11.0941 6.24895C11.1805 6.35033 11.229 6.48784 11.229 6.63121C11.229 6.77459 11.1805 6.9121 11.0941 7.01348C11.0077 7.11486 10.8905 7.17182 10.7684 7.17182H6.16232Z" fill="#6E707F"/>
<path d="M5.70171 12.0373H7.10171H5.70171ZM5.70171 9.33424H7.10171H5.70171ZM5.70171 6.63121H7.10171H5.70171ZM6.16232 13.9779C5.58989 13.9779 5.09617 13.7092 4.77097 13.3275L6.90227 11.5116C6.74983 11.3327 6.49042 11.1779 6.16232 11.1779V13.9779ZM4.77097 13.3275C4.4516 12.9527 4.30171 12.486 4.30171 12.0373H7.10171C7.10171 11.8754 7.04888 11.6837 6.90227 11.5116L4.77097 13.3275ZM4.30171 12.0373C4.30171 11.5886 4.4516 11.1219 4.77097 10.7471L6.90227 12.563C7.04888 12.3909 7.10171 12.1992 7.10171 12.0373H4.30171ZM4.77097 10.7471C5.09617 10.3654 5.58989 10.0967 6.16232 10.0967V12.8967C6.49042 12.8967 6.74983 12.7419 6.90227 12.563L4.77097 10.7471ZM6.16232 10.0967H10.7684V12.8967H6.16232V10.0967ZM10.7684 10.0967C11.3408 10.0967 11.8345 10.3654 12.1597 10.7471L10.0284 12.563C10.1809 12.7419 10.4403 12.8967 10.7684 12.8967V10.0967ZM12.1597 10.7471C12.4791 11.1219 12.629 11.5886 12.629 12.0373H9.82899C9.82899 12.1992 9.88182 12.3909 10.0284 12.563L12.1597 10.7471ZM12.629 12.0373C12.629 12.4859 12.4791 12.9527 12.1597 13.3275L10.0284 11.5116C9.88182 11.6837 9.82899 11.8754 9.82899 12.0373H12.629ZM12.1597 13.3275C11.8345 13.7092 11.3408 13.9779 10.7684 13.9779V11.1779C10.4403 11.1779 10.1809 11.3327 10.0284 11.5116L12.1597 13.3275ZM10.7684 13.9779H6.16232V11.1779H10.7684V13.9779ZM6.16232 11.2749C5.5899 11.2749 5.09618 11.0062 4.77097 10.6245L6.90227 8.80856C6.74983 8.62963 6.49042 8.47485 6.16232 8.47485V11.2749ZM4.77097 10.6245C4.4516 10.2496 4.30171 9.78292 4.30171 9.33424H7.10171C7.10171 9.17232 7.04888 8.98062 6.90227 8.80856L4.77097 10.6245ZM4.30171 9.33424C4.30171 8.88557 4.4516 8.41886 4.77097 8.04402L6.90227 9.85993C7.04888 9.68787 7.10171 9.49617 7.10171 9.33424H4.30171ZM4.77097 8.04402C5.09618 7.66233 5.5899 7.39364 6.16232 7.39364V10.1936C6.49042 10.1936 6.74983 10.0389 6.90227 9.85993L4.77097 8.04402ZM6.16232 7.39364H10.7684V10.1936H6.16232V7.39364ZM10.7684 7.39364C11.3408 7.39364 11.8345 7.66233 12.1597 8.04402L10.0284 9.85993C10.1809 10.0389 10.4403 10.1936 10.7684 10.1936V7.39364ZM12.1597 8.04402C12.4791 8.41886 12.629 8.88557 12.629 9.33424H9.82899C9.82899 9.49616 9.88182 9.68786 10.0284 9.85993L12.1597 8.04402ZM12.629 9.33424C12.629 9.78292 12.4791 10.2496 12.1597 10.6245L10.0284 8.80856C9.88182 8.98063 9.82899 9.17233 9.82899 9.33424H12.629ZM12.1597 10.6245C11.8345 11.0062 11.3408 11.2749 10.7684 11.2749V8.47485C10.4403 8.47485 10.1809 8.62963 10.0284 8.80856L12.1597 10.6245ZM10.7684 11.2749H6.16232V8.47485H10.7684V11.2749ZM6.16232 8.57182C5.5899 8.57182 5.09618 8.30313 4.77097 7.92144L6.90227 6.10553C6.74983 5.9266 6.49042 5.77182 6.16232 5.77182V8.57182ZM4.77097 7.92144C4.4516 7.5466 4.30171 7.07989 4.30171 6.63121H7.10171C7.10171 6.46929 7.04888 6.27759 6.90227 6.10553L4.77097 7.92144ZM4.30171 6.63121C4.30171 6.18254 4.4516 5.71583 4.77097 5.34099L6.90227 7.1569C7.04888 6.98483 7.10171 6.79313 7.10171 6.63121H4.30171ZM4.77097 5.34099C5.09618 4.9593 5.5899 4.69061 6.16232 4.69061V7.49061C6.49042 7.49061 6.74983 7.33583 6.90227 7.1569L4.77097 5.34099ZM6.16232 4.69061H10.7684V7.49061H6.16232V4.69061ZM10.7684 4.69061C11.3408 4.69061 11.8345 4.9593 12.1597 5.34099L10.0284 7.1569C10.1809 7.33583 10.4403 7.49061 10.7684 7.49061V4.69061ZM12.1597 5.34099C12.4791 5.71583 12.629 6.18254 12.629 6.63121H9.82899C9.82899 6.79313 9.88182 6.98483 10.0284 7.1569L12.1597 5.34099ZM12.629 6.63121C12.629 7.07989 12.4791 7.5466 12.1597 7.92144L10.0284 6.10553C9.88182 6.2776 9.82899 6.4693 9.82899 6.63121H12.629ZM12.1597 7.92144C11.8345 8.30313 11.3408 8.57182 10.7684 8.57182V5.77182C10.4403 5.77182 10.1809 5.9266 10.0284 6.10553L12.1597 7.92144ZM10.7684 8.57182H6.16232V5.77182H10.7684V8.57182Z" fill="#737584" mask="url(#path-2-inside-1_248_773)"/>
</svg>
