<svg width="13" height="13" viewBox="0 0 13 13" fill="none" xmlns="http://www.w3.org/2000/svg">
<path d="M11.375 1.08333H9.75V0H8.66667V1.08333H4.33333V0H3.25V1.08333H1.625C1.19402 1.08333 0.780698 1.25454 0.475951 1.55928C0.171205 1.86403 0 2.27736 0 2.70833L0 13H13V2.70833C13 2.27736 12.8288 1.86403 12.524 1.55928C12.2193 1.25454 11.806 1.08333 11.375 1.08333ZM1.08333 2.70833C1.08333 2.56467 1.1404 2.4269 1.24198 2.32532C1.34357 2.22374 1.48134 2.16667 1.625 2.16667H11.375C11.5187 2.16667 11.6564 2.22374 11.758 2.32532C11.8596 2.4269 11.9167 2.56467 11.9167 2.70833V4.33333H1.08333V2.70833ZM1.08333 11.9167V5.41667H11.9167V11.9167H1.08333Z" fill="#6E707F"/>
<path d="M9.20834 7.04175H8.125V8.12509H9.20834V7.04175Z" fill="#6E707F"/>
<path d="M7.04171 7.04175H5.95837V8.12509H7.04171V7.04175Z" fill="#6E707F"/>
<path d="M4.87496 7.04175H3.79163V8.12509H4.87496V7.04175Z" fill="#6E707F"/>
<path d="M9.20834 9.20837H8.125V10.2917H9.20834V9.20837Z" fill="#6E707F"/>
<path d="M7.04171 9.20837H5.95837V10.2917H7.04171V9.20837Z" fill="#6E707F"/>
<path d="M4.87496 9.20837H3.79163V10.2917H4.87496V9.20837Z" fill="#6E707F"/>
</svg>
