<svg width="13" height="14" viewBox="0 0 13 14" fill="none" xmlns="http://www.w3.org/2000/svg">
<path d="M4.98578 1.13715L4.98573 1.13721L1.34937 4.77357L1.34931 4.77363C1.32945 4.79349 1.31827 4.82042 1.31824 4.8485L4.98578 1.13715ZM4.98578 1.13715C5.00564 1.11729 5.03257 1.10611 5.06066 1.10608L4.98578 1.13715ZM1.53036 4.95456H2.03036H5.06066C5.08879 4.95456 5.11577 4.94339 5.13566 4.9235C5.15555 4.90361 5.16672 4.87663 5.16672 4.8485V1.8182V1.3182H5.66672H9.90915C10.2025 1.3182 10.4838 1.43473 10.6912 1.64216C10.8987 1.84959 11.0152 2.13092 11.0152 2.42426V5.45456C11.0152 5.48269 11.0264 5.50967 11.0463 5.52956C11.0662 5.54945 11.0931 5.56063 11.1213 5.56063C11.1494 5.56063 11.1764 5.54945 11.1963 5.52956C11.2162 5.50967 11.2273 5.48269 11.2273 5.45456V2.42426C11.2273 2.07466 11.0884 1.73937 10.8412 1.49217C10.594 1.24496 10.2587 1.10608 9.90915 1.10608H5.06077L1.53036 4.95456ZM1.53036 4.95456V5.45456M1.53036 4.95456V5.45456M1.53036 5.45456V12.1212C1.53036 12.4146 1.64689 12.6959 1.85432 12.9033C2.06174 13.1108 2.34307 13.2273 2.63642 13.2273H5.06066C5.08879 13.2273 5.11577 13.2385 5.13566 13.2584C5.15555 13.2782 5.16672 13.3052 5.16672 13.3334C5.16672 13.3615 5.15555 13.3885 5.13566 13.4083C5.11577 13.4282 5.08879 13.4394 5.06066 13.4394H2.63642C2.28682 13.4394 1.95153 13.3005 1.70432 13.0533M1.53036 5.45456L1.35077 13.4069L1.70432 13.0533M1.70432 13.0533C1.45712 12.8061 1.31824 12.4708 1.31824 12.1212V4.84861L1.70432 13.0533ZM4.4546 4.74244H4.9546V4.24244V2.67517V1.46806L4.10105 2.32162L2.53377 3.88889L1.68022 4.74244H2.88733H4.4546ZM6.37257 7.84267L6.37255 7.84267L6.37374 7.84636L7.16041 10.2936L7.63642 11.7745L8.11243 10.2936L8.89909 7.8464C8.89909 7.84639 8.89909 7.84638 8.8991 7.84636C8.90597 7.825 8.91945 7.80637 8.93758 7.79316C8.95573 7.77993 8.9776 7.77281 9.00006 7.77281C9.02251 7.77281 9.04438 7.77993 9.06253 7.79316C9.08066 7.80637 9.09414 7.825 9.10101 7.84636C9.10102 7.84638 9.10102 7.84639 9.10102 7.8464L9.88768 10.2936L10.3637 11.7745L10.8397 10.2936L11.6264 7.84636L11.6264 7.84637L11.6275 7.84267C11.6317 7.82931 11.6385 7.81691 11.6475 7.80618L11.2644 7.48488L11.6475 7.80618C11.6565 7.79545 11.6675 7.78662 11.6799 7.78018L11.4498 7.33628L11.68 7.78018C11.6924 7.77374 11.706 7.76982 11.7199 7.76865C11.7339 7.76748 11.7479 7.76908 11.7612 7.77336C11.7745 7.77765 11.7869 7.78452 11.7975 7.7936L12.1218 7.413L11.7975 7.79361C11.8082 7.80268 11.817 7.81378 11.8233 7.82625L12.269 7.59958L11.8233 7.82626C11.8296 7.83874 11.8335 7.85234 11.8345 7.86629C11.8356 7.88025 11.8339 7.89428 11.8295 7.90757L11.8283 7.91126L10.4647 12.1536C10.4578 12.175 10.4443 12.1937 10.4262 12.2069C10.408 12.2201 10.3861 12.2272 10.3637 12.2272C10.3412 12.2272 10.3194 12.2201 10.3012 12.2069C10.2831 12.1937 10.2696 12.175 10.2627 12.1537C10.2627 12.1537 10.2627 12.1537 10.2627 12.1536L9.47607 9.7064L9.00006 8.22556L8.52404 9.7064L7.73739 12.1536C7.73738 12.1536 7.73738 12.1537 7.73738 12.1537C7.7305 12.175 7.71702 12.1937 7.69889 12.2069L7.9934 12.6109L7.69889 12.2069C7.68075 12.2201 7.65887 12.2272 7.63642 12.2272C7.61396 12.2272 7.59209 12.2201 7.57395 12.2069L7.27943 12.6109L7.57395 12.2069C7.55582 12.1937 7.54234 12.175 7.53546 12.1537C7.53546 12.1537 7.53545 12.1537 7.53545 12.1536L6.17183 7.91126L6.17184 7.91125L6.17063 7.90757C6.16624 7.89428 6.16453 7.88025 6.16559 7.8663C6.16665 7.85234 6.17046 7.83873 6.17681 7.82626L6.17681 7.82625C6.18316 7.81378 6.19191 7.80268 6.20256 7.79361L5.87831 7.413L6.20256 7.7936C6.21322 7.78453 6.22557 7.77765 6.23889 7.77337C6.25221 7.76908 6.26626 7.76748 6.2802 7.76865C6.29416 7.76982 6.30773 7.77374 6.32016 7.78018C6.33259 7.78662 6.34362 7.79546 6.35261 7.80618C6.3616 7.81691 6.36839 7.82931 6.37257 7.84267Z" fill="#737584" stroke="#737584"/>
</svg>
