<svg width="13" height="14" viewBox="0 0 13 14" fill="none" xmlns="http://www.w3.org/2000/svg">
<path fill-rule="evenodd" clip-rule="evenodd" d="M0.212158 2.33347C0.212158 1.80301 0.403716 1.29428 0.744691 0.919189C1.08567 0.544098 1.54813 0.333374 2.03034 0.333374H10.5152C10.9974 0.333374 11.4599 0.544098 11.8008 0.919189C12.1418 1.29428 12.3334 1.80301 12.3334 2.33347V11.6673C12.3334 12.1977 12.1418 12.7064 11.8008 13.0815C11.4599 13.4566 10.9974 13.6674 10.5152 13.6674H2.03034C1.54813 13.6674 1.08567 13.4566 0.744691 13.0815C0.403716 12.7064 0.212158 12.1977 0.212158 11.6673V2.33347ZM2.03034 1.66677C1.8696 1.66677 1.71545 1.73701 1.60179 1.86204C1.48813 1.98707 1.42428 2.15665 1.42428 2.33347V5.66697H11.1213V2.33347C11.1213 2.15665 11.0574 1.98707 10.9437 1.86204C10.8301 1.73701 10.6759 1.66677 10.5152 1.66677H2.03034ZM1.42428 7.00036V11.6673C1.42428 11.8441 1.48813 12.0137 1.60179 12.1387C1.71545 12.2637 1.8696 12.334 2.03034 12.334H10.5152C10.6759 12.334 10.8301 12.2637 10.9437 12.1387C11.0574 12.0137 11.1213 11.8441 11.1213 11.6673V7.00036H1.42428ZM7.48489 7.66706C7.64561 7.6671 7.79974 7.73737 7.91337 7.86241L10.3376 10.5292C10.448 10.6549 10.5091 10.8234 10.5077 10.9982C10.5063 11.173 10.4426 11.3402 10.3302 11.4638C10.2179 11.5874 10.0659 11.6575 9.90695 11.659C9.74804 11.6606 9.59495 11.5934 9.48064 11.4719L7.48489 9.27647L6.09519 10.8052L5.48913 11.4719C5.37482 11.5934 5.22173 11.6606 5.06283 11.659C4.90392 11.6575 4.75191 11.5874 4.63954 11.4638C4.52717 11.3402 4.46343 11.173 4.46205 10.9982C4.46067 10.8234 4.52176 10.6549 4.63216 10.5292L4.80973 10.3339L4.45458 9.94317L3.06489 11.4719C2.95058 11.5934 2.79749 11.6606 2.63858 11.659C2.47967 11.6575 2.32767 11.5874 2.2153 11.4638C2.10293 11.3402 2.03919 11.173 2.03781 10.9982C2.03643 10.8234 2.09752 10.6549 2.20792 10.5292L4.0261 8.52911C4.13975 8.40412 4.29388 8.33391 4.45458 8.33391C4.61529 8.33391 4.76941 8.40412 4.88307 8.52911L5.6667 9.39115L7.0564 7.86241C7.17003 7.73737 7.32416 7.6671 7.48489 7.66706ZM5.6667 3.66687C5.6667 3.49005 5.73056 3.32047 5.84422 3.19544C5.95787 3.07041 6.11203 3.00017 6.27277 3.00017H9.30307C9.46381 3.00017 9.61796 3.07041 9.73162 3.19544C9.84528 3.32047 9.90913 3.49005 9.90913 3.66687C9.90913 3.84369 9.84528 4.01327 9.73162 4.1383C9.61796 4.26333 9.46381 4.33357 9.30307 4.33357H6.27277C6.11203 4.33357 5.95787 4.26333 5.84422 4.1383C5.73056 4.01327 5.6667 3.84369 5.6667 3.66687ZM3.24246 4.83359C3.52375 4.83359 3.79352 4.71067 3.99242 4.49187C4.19133 4.27306 4.30307 3.9763 4.30307 3.66687C4.30307 3.35744 4.19133 3.06067 3.99242 2.84187C3.79352 2.62307 3.52375 2.50015 3.24246 2.50015C2.96117 2.50015 2.6914 2.62307 2.4925 2.84187C2.2936 3.06067 2.18186 3.35744 2.18186 3.66687C2.18186 3.9763 2.2936 4.27306 2.4925 4.49187C2.6914 4.71067 2.96117 4.83359 3.24246 4.83359Z" fill="#737584"/>
</svg>
