<svg width="15" height="15" viewBox="0 0 15 15" fill="none" xmlns="http://www.w3.org/2000/svg">
<path fill-rule="evenodd" clip-rule="evenodd" d="M7.27275 14.5455C7.18634 14.5455 7.10092 14.5271 7.02221 14.4915C6.9435 14.4558 6.87332 14.4038 6.81638 14.3388L4.87699 12.1212H2.42426C1.94205 12.1212 1.47959 11.9297 1.13861 11.5887C0.797637 11.2477 0.606079 10.7852 0.606079 10.303V1.81818C0.606079 1.33597 0.797637 0.873508 1.13861 0.532533C1.47959 0.191558 1.94205 0 2.42426 0L12.1212 0C12.6034 0 13.0659 0.191558 13.4069 0.532533C13.7479 0.873508 13.9394 1.33597 13.9394 1.81818V10.303C13.9394 10.7852 13.7479 11.2477 13.4069 11.5887C13.0659 11.9297 12.6034 12.1212 12.1212 12.1212H9.66911L7.72911 14.3388C7.67217 14.4038 7.60199 14.4558 7.52328 14.4915C7.44457 14.5271 7.35915 14.5455 7.27275 14.5455ZM7.27275 13.0188L8.93759 11.1158C8.99453 11.0508 9.06471 10.9987 9.14342 10.9631C9.22213 10.9274 9.30755 10.909 9.39396 10.9091H12.1212C12.282 10.9091 12.4361 10.8452 12.5498 10.7316C12.6634 10.6179 12.7273 10.4638 12.7273 10.303V1.81818C12.7273 1.65744 12.6634 1.50329 12.5498 1.38963C12.4361 1.27597 12.282 1.21212 12.1212 1.21212H2.42426C2.26352 1.21212 2.10937 1.27597 1.99571 1.38963C1.88205 1.50329 1.8182 1.65744 1.8182 1.81818V10.303C1.8182 10.4638 1.88205 10.6179 1.99571 10.7316C2.10937 10.8452 2.26352 10.9091 2.42426 10.9091H5.15153C5.23794 10.909 5.32336 10.9274 5.40207 10.9631C5.48078 10.9987 5.55096 11.0508 5.6079 11.1158L7.27275 13.0194V13.0188Z" fill="#707281"/>
<path fill-rule="evenodd" clip-rule="evenodd" d="M6.6668 2.4243C6.6668 2.26356 6.60294 2.10941 6.48928 1.99575C6.37563 1.88209 6.22147 1.81824 6.06074 1.81824C5.9 1.81824 5.74584 1.88209 5.63219 1.99575C5.51853 2.10941 5.45467 2.26356 5.45467 2.4243V3.03036H4.84861C4.68788 3.03036 4.53372 3.09421 4.42006 3.20787C4.30641 3.32153 4.24255 3.47568 4.24255 3.63642C4.24255 3.79716 4.30641 3.95131 4.42006 4.06497C4.53372 4.17863 4.68788 4.24248 4.84861 4.24248V7.87885C4.68788 7.87885 4.53372 7.9427 4.42006 8.05636C4.30641 8.17002 4.24255 8.32417 4.24255 8.48491C4.24255 8.64564 4.30641 8.7998 4.42006 8.91346C4.53372 9.02711 4.68788 9.09097 4.84861 9.09097H5.45467V9.69703C5.45467 9.85777 5.51853 10.0119 5.63219 10.1256C5.74584 10.2392 5.9 10.3031 6.06074 10.3031C6.22147 10.3031 6.37563 10.2392 6.48928 10.1256C6.60294 10.0119 6.6668 9.85777 6.6668 9.69703V9.09097H7.27286V9.69703C7.27286 9.85777 7.33671 10.0119 7.45037 10.1256C7.56403 10.2392 7.71818 10.3031 7.87892 10.3031C8.03965 10.3031 8.19381 10.2392 8.30747 10.1256C8.42113 10.0119 8.48498 9.85777 8.48498 9.69703V9.09097H8.78801C9.15926 9.09089 9.52159 8.97717 9.82629 8.7651C10.131 8.55302 10.3635 8.25274 10.4925 7.90463C10.6215 7.55652 10.6409 7.17726 10.548 6.81782C10.4551 6.45839 10.2544 6.136 9.97286 5.894C10.1643 5.62162 10.2773 5.30192 10.2994 4.96974C10.3216 4.63757 10.2522 4.30567 10.0987 4.01026C9.94521 3.71484 9.71356 3.46723 9.429 3.29444C9.14443 3.12165 8.81789 3.0303 8.48498 3.03036V2.4243C8.48498 2.26356 8.42113 2.10941 8.30747 1.99575C8.19381 1.88209 8.03965 1.81824 7.87892 1.81824C7.71818 1.81824 7.56403 1.88209 7.45037 1.99575C7.33671 2.10941 7.27286 2.26356 7.27286 2.4243V3.03036H6.6668V2.4243ZM7.87892 7.87885H6.06074V6.66672H8.78801C8.94875 6.66672 9.1029 6.73058 9.21656 6.84423C9.33022 6.95789 9.39407 7.11205 9.39407 7.27278C9.39407 7.43352 9.33022 7.58768 9.21656 7.70133C9.1029 7.81499 8.94875 7.87885 8.78801 7.87885H7.87892ZM7.87892 4.24248H6.06074V5.4546H8.48498C8.64572 5.4546 8.79987 5.39075 8.91353 5.27709C9.02719 5.16343 9.09104 5.00928 9.09104 4.84854C9.09104 4.6878 9.02719 4.53365 8.91353 4.41999C8.79987 4.30633 8.64572 4.24248 8.48498 4.24248H7.87892Z" fill="#6E707F"/>
</svg>
